<svg width="1250" height="118" viewBox="0 0 1250 118" fill="none" xmlns="http://www.w3.org/2000/svg">
<path d="M51.7841 51.0174C48.8389 51.0592 46.4852 53.4806 46.527 56.4258C46.5687 59.371 48.9902 61.7247 51.9354 61.683C54.8807 61.6412 57.2344 59.2197 57.1926 56.2745C57.1508 53.3293 54.7294 50.9756 51.7841 51.0174ZM1228.13 74.0486C1228.17 74.5997 1228.64 75.0165 1229.2 74.9797L1238.18 74.3795C1238.73 74.3427 1239.14 73.8661 1239.11 73.315C1239.07 72.764 1238.59 72.3471 1238.04 72.384L1230.06 72.9175L1229.53 64.9353C1229.49 64.3842 1229.01 63.9674 1228.46 64.0042C1227.91 64.041 1227.49 64.5176 1227.53 65.0687L1228.13 74.0486ZM51.3654 55.481C49.292 56.6604 47.2873 57.8195 45.3502 58.9586L46.3641 60.6826C48.2924 59.5486 50.2889 58.3943 52.3542 57.2194L51.3654 55.481ZM34.5345 65.5554C31.1961 67.6757 28.1217 69.7185 25.306 71.6857L26.4514 73.3252C29.2401 71.3769 32.2897 69.3504 35.6068 67.2437L34.5345 65.5554ZM14.9486 79.5389C11.7352 82.2296 9.09638 84.7596 7.01978 87.136L8.5259 88.452C10.5165 86.1739 13.0751 83.7161 16.2325 81.0723L14.9486 79.5389ZM1.17512 98.4554C0.88016 102.775 3.40904 106.152 7.97667 108.684L8.94659 106.935C4.75401 104.611 2.94856 101.842 3.17054 98.5917L1.17512 98.4554ZM20.0513 112.839C23.3558 113.562 27.0726 114.161 31.1794 114.643L31.4123 112.656C27.355 112.18 23.7052 111.591 20.479 110.885L20.0513 112.839ZM44.1311 115.717C47.6897 115.911 51.4517 116.045 55.4089 116.124L55.4484 114.124C51.5112 114.046 47.7725 113.912 44.2399 113.72L44.1311 115.717ZM67.8611 116.191C71.7499 116.162 75.7901 116.089 79.9759 115.976L79.9215 113.976C75.7475 114.09 71.7207 114.162 67.8463 114.191L67.8611 116.191ZM91.6807 115.566C95.6989 115.396 99.8324 115.194 104.077 114.96L103.967 112.963C99.7303 113.197 95.6053 113.399 91.5963 113.568L91.6807 115.566ZM116.308 114.221C120.103 113.973 123.977 113.702 127.926 113.41L127.779 111.416C123.835 111.707 119.967 111.977 116.177 112.225L116.308 114.221ZM139.998 112.473C144.097 112.139 148.268 111.786 152.51 111.412L152.335 109.42C148.097 109.793 143.93 110.146 139.836 110.479L139.998 112.473ZM164.292 110.343C168.156 109.982 172.074 109.606 176.043 109.216L175.847 107.226C171.881 107.616 167.967 107.991 164.106 108.352L164.292 110.343ZM188.105 108.004C192.176 107.586 196.297 107.155 200.467 106.71L200.255 104.721C196.088 105.166 191.969 105.597 187.901 106.015L188.105 108.004ZM212.395 105.417C216.265 104.991 220.173 104.555 224.118 104.109L223.894 102.121C219.95 102.567 216.044 103.004 212.177 103.429L212.395 105.417ZM236.065 102.74C240.083 102.274 244.138 101.799 248.227 101.314L247.992 99.328C243.904 99.8125 239.851 100.288 235.835 100.753L236.065 102.74ZM260.544 99.8397C264.401 99.3736 268.286 98.8998 272.2 98.4189L271.956 96.4339C268.044 96.9146 264.159 97.3882 260.304 97.8542L260.544 99.8397ZM284.021 96.9549C287.989 96.4599 291.983 95.9581 296.003 95.4496L295.752 93.4655C291.733 93.9737 287.74 94.4755 283.774 94.9703L284.021 96.9549ZM308.138 93.9051C312.175 93.3882 316.236 92.8651 320.32 92.3362L320.063 90.3528C315.98 90.8815 311.92 91.4045 307.884 91.9213L308.138 93.9051ZM332.043 90.8108C335.971 90.2972 339.919 89.7787 343.887 89.2554L343.625 87.2726C339.658 87.7957 335.711 88.3142 331.784 88.8276L332.043 90.8108ZM355.845 87.6719C359.85 87.1395 363.874 86.6027 367.914 86.0618L367.649 84.0795C363.609 84.6203 359.586 85.157 355.582 85.6893L355.845 87.6719ZM380.088 84.4268C384.002 83.8995 387.931 83.3686 391.875 82.8344L391.606 80.8525C387.663 81.3867 383.734 81.9175 379.821 82.4447L380.088 84.4268ZM403.717 81.2264C407.679 80.6872 411.654 80.145 415.642 79.5999L415.372 77.6183C411.384 78.1633 407.409 78.7055 403.448 79.2447L403.717 81.2264ZM427.645 77.9565C431.658 77.406 435.683 76.8529 439.72 76.2975L439.447 74.3162C435.411 74.8715 431.386 75.4246 427.373 75.975L427.645 77.9565ZM451.682 74.6495C455.621 74.1062 459.57 73.5609 463.528 73.0139L463.254 71.0327C459.296 71.5798 455.347 72.125 451.409 72.6683L451.682 74.6495ZM475.43 71.3677C479.406 70.8174 483.391 70.2655 487.383 69.7123L487.109 67.7312C483.116 68.2844 479.132 68.8363 475.156 69.3866L475.43 71.3677ZM499.384 68.049C503.392 67.4934 507.407 66.9367 511.428 66.3791L511.153 64.398C507.132 64.9556 503.117 65.5123 499.109 66.0679L499.384 68.049ZM523.316 64.731C527.278 64.1819 531.245 63.6321 535.217 63.0819L534.943 61.1008C530.971 61.651 527.003 62.2008 523.041 62.7499L523.316 64.731ZM547.148 61.4303C551.13 60.8794 555.116 60.3284 559.105 59.7773L558.831 57.7962C554.842 58.3472 550.856 58.8983 546.874 59.4491L547.148 61.4303ZM571.083 58.1244C575.074 57.5744 579.067 57.0245 583.063 56.475L582.79 54.4937C578.794 55.0432 574.801 55.5931 570.81 56.1432L571.083 58.1244ZM594.993 54.8367C598.971 54.2912 602.952 53.7462 606.933 53.2021L606.662 51.2205C602.68 51.7647 598.7 52.3097 594.721 52.8553L594.993 54.8367ZM618.878 51.5725C622.86 51.0302 626.843 50.489 630.825 49.949L630.556 47.9672C626.573 48.5072 622.591 49.0485 618.608 49.5908L618.878 51.5725ZM642.769 48.333C646.758 47.7946 650.746 47.2576 654.733 46.7223L654.466 44.74C650.48 45.2754 646.491 45.8125 642.502 46.351L642.769 48.333ZM666.714 45.1176C670.706 44.5846 674.696 44.0534 678.682 43.5242L678.419 41.5416C674.432 42.0708 670.442 42.6021 666.45 43.1352L666.714 45.1176ZM690.632 41.9434C694.611 41.4186 698.587 40.8962 702.559 40.3762L702.299 38.3932C698.327 38.9132 694.35 39.4357 690.37 39.9605L690.632 41.9434ZM714.46 38.8241C718.469 38.3032 722.474 37.785 726.473 37.2699L726.217 35.2863C722.218 35.8015 718.212 36.3198 714.202 36.8408L714.46 38.8241ZM738.497 35.7278C742.498 35.217 746.493 34.7093 750.481 34.2052L750.23 32.221C746.241 32.7252 742.246 33.233 738.243 33.7439L738.497 35.7278ZM762.421 32.7032C766.394 32.2062 770.358 31.7128 774.314 31.2233L774.068 29.2384C770.111 29.728 766.146 30.2215 762.173 30.7187L762.421 32.7032ZM786.199 29.7613C790.246 29.2664 794.284 28.7759 798.311 28.2899L798.071 26.3043C794.043 26.7904 790.005 27.2811 785.956 27.776L786.199 29.7613ZM810.358 26.8461C814.363 26.3695 818.357 25.8978 822.338 25.4311L822.105 23.4447C818.122 23.9115 814.128 24.3834 810.122 24.8601L810.358 26.8461ZM834.244 24.0465C838.2 23.5901 842.144 23.1391 846.073 22.6936L845.848 20.7063C841.917 21.152 837.973 21.6032 834.015 22.0596L834.244 24.0465ZM858.139 21.3385C862.199 20.8868 866.244 20.4414 870.272 20.0025L870.055 18.0143C866.026 18.4533 861.979 18.8989 857.917 19.3507L858.139 21.3385ZM882.306 18.7057C886.301 18.2802 890.278 17.8614 894.237 17.4497L894.03 15.4604C890.069 15.8723 886.091 16.2913 882.094 16.717L882.306 18.7057ZM906.058 16.236C910.069 15.8296 914.06 15.4309 918.03 15.0402L917.834 13.0498C913.862 13.4407 909.869 13.8396 905.856 14.2462L906.058 16.236ZM930.257 13.8559C934.309 13.4698 938.339 13.0925 942.344 12.7243L942.161 10.7327C938.153 11.1011 934.122 11.4786 930.067 11.8649L930.257 13.8559ZM954.286 11.6474C958.242 11.2977 962.172 10.9575 966.077 10.627L965.908 8.63411C962.001 8.96484 958.068 9.3053 954.11 9.65518L954.286 11.6474ZM978.074 9.63567C982.204 9.30292 986.303 8.98176 990.369 8.67256L990.218 6.67832C986.148 6.98775 982.046 7.30915 977.913 7.64213L978.074 9.63567ZM1002.47 7.78127C1006.47 7.49641 1010.44 7.2239 1014.37 6.96415L1014.23 4.9685C1010.3 5.22849 1006.33 5.50123 1002.33 5.78633L1002.47 7.78127ZM1026.05 6.22352C1030.2 5.97224 1034.31 5.73612 1038.37 5.51566L1038.26 3.5186C1034.19 3.7393 1030.08 3.97565 1025.93 4.22718L1026.05 6.22352ZM1050.64 4.89136C1054.68 4.69983 1058.68 4.52503 1062.63 4.36748L1062.55 2.36907C1058.59 2.52682 1054.59 2.70184 1050.54 2.8936L1050.64 4.89136ZM1074.33 3.94706C1078.43 3.81636 1082.48 3.70584 1086.48 3.61614L1086.43 1.61665C1082.43 1.70649 1078.38 1.81718 1074.26 1.94808L1074.33 3.94706ZM1098.86 3.403C1102.92 3.35541 1106.92 3.33151 1110.84 3.33203L1110.84 1.33203C1106.91 1.33151 1102.91 1.35546 1098.84 1.40313L1098.86 3.403ZM1122.41 3.4075C1126.64 3.46354 1130.79 3.55107 1134.84 3.67109L1134.9 1.67197C1130.84 1.5516 1126.68 1.46385 1122.43 1.40768L1122.41 3.4075ZM1147.1 4.14782C1151.08 4.34209 1154.96 4.57207 1158.73 4.83884L1158.87 2.84382C1155.08 2.57595 1151.19 2.34512 1147.19 2.1502L1147.1 4.14782ZM1170.8 5.85566C1175.06 6.27631 1179.16 6.75204 1183.08 7.28469L1183.35 5.30282C1179.4 4.76663 1175.28 4.28816 1171 3.86536L1170.8 5.85566ZM1194.36 9.05498C1198.71 9.84105 1202.81 10.7132 1206.63 11.6743L1207.12 9.73453C1203.24 8.76106 1199.11 7.8798 1194.72 7.08684L1194.36 9.05498ZM1217.79 14.997C1221.98 16.4777 1225.7 18.1078 1228.93 19.8912L1229.9 18.1398C1226.55 16.2934 1222.73 14.6208 1218.46 13.1113L1217.79 14.997ZM1237.94 26.462C1240.94 29.4729 1242.92 32.787 1243.86 36.426L1245.79 35.928C1244.76 31.8953 1242.58 28.2763 1239.36 25.0504L1237.94 26.462ZM1243.77 47.3921C1242.98 50.7356 1241.53 54.3269 1239.38 58.1778L1241.13 59.1535C1243.35 55.1771 1244.88 51.4119 1245.71 47.851L1243.77 47.3921ZM1232.76 68.0251C1231.42 69.7496 1229.96 71.5156 1228.38 73.3236L1229.88 74.6403C1231.49 72.8057 1232.97 71.01 1234.34 69.2525L1232.76 68.0251ZM51.7085 45.6846C45.8181 45.7681 41.1107 50.611 41.1942 56.5015C41.2778 62.3919 46.1207 67.0993 52.0111 67.0158C57.9015 66.9322 62.6089 62.0893 62.5253 56.1989C62.4418 50.3084 57.5989 45.601 51.7085 45.6846ZM1227.13 74.1153C1227.21 75.2174 1228.16 76.0511 1229.26 75.9775L1247.22 74.7771C1248.32 74.7034 1249.16 73.7503 1249.08 72.6482C1249.01 71.5461 1248.06 70.7123 1246.96 70.786L1230.99 71.853L1229.92 55.8886C1229.85 54.7865 1228.9 53.9528 1227.8 54.0265C1226.69 54.1001 1225.86 55.0533 1225.93 56.1554L1227.13 74.1153ZM50.8709 54.6118C48.7937 55.7934 46.7847 56.9549 44.8433 58.0966L46.8711 61.5446C48.7949 60.4132 50.7872 59.2612 52.8487 58.0886L50.8709 54.6118ZM33.9983 64.7112C30.6493 66.8383 27.5626 68.8893 24.7333 70.866L27.0241 74.145C29.7993 72.2062 32.8365 70.1877 36.1429 68.0878L33.9983 64.7112ZM14.3066 78.7722C11.0652 81.4863 8.38621 84.0525 6.26684 86.478L9.27884 89.11C11.2265 86.881 13.7451 84.4594 16.8746 81.839L14.3066 78.7722ZM0.177472 98.3872C-0.153978 103.241 2.73655 106.922 7.49184 109.559L9.43142 106.061C5.42649 103.84 3.98269 101.375 4.16819 98.6598L0.177472 98.3872ZM19.8374 113.816C23.1811 114.548 26.9314 115.151 31.0628 115.636L31.5289 111.663C27.4962 111.19 23.8798 110.606 20.6928 109.908L19.8374 113.816ZM44.0768 116.716C47.6484 116.91 51.4218 117.045 55.3891 117.123L55.4681 113.124C51.541 113.047 47.814 112.913 44.2942 112.722L44.0768 116.716ZM67.8686 117.191C71.7646 117.162 75.8113 117.089 80.0031 116.975L79.8943 112.977C75.7263 113.09 71.706 113.162 67.8389 113.191L67.8686 117.191ZM91.723 116.565C95.7456 116.395 99.8834 116.193 104.132 115.959L103.912 111.965C99.6793 112.198 95.5586 112.4 91.5542 112.569L91.723 116.565ZM116.373 115.219C120.171 114.97 124.048 114.7 127.999 114.408L127.705 110.419C123.763 110.71 119.898 110.98 116.112 111.228L116.373 115.219ZM140.079 113.469C144.18 113.136 148.354 112.782 152.598 112.409L152.247 108.424C148.011 108.797 143.846 109.15 139.755 109.482L140.079 113.469ZM164.385 111.339C168.251 110.978 172.17 110.602 176.141 110.211L175.75 106.231C171.785 106.62 167.872 106.996 164.013 107.356L164.385 111.339ZM188.207 108.999C192.28 108.581 196.402 108.149 200.573 107.704L200.149 103.727C195.983 104.171 191.866 104.602 187.798 105.02L188.207 108.999ZM212.505 106.411C216.375 105.985 220.284 105.549 224.231 105.102L223.781 101.128C219.839 101.574 215.934 102.01 212.067 102.435L212.505 106.411ZM236.18 103.733C240.199 103.267 244.255 102.792 248.345 102.307L247.874 98.335C243.787 98.8193 239.735 99.2945 235.719 99.76L236.18 103.733ZM260.664 100.833C264.521 100.366 268.408 99.8925 272.322 99.4115L271.834 95.4413C267.922 95.922 264.039 96.3955 260.184 96.8614L260.664 100.833ZM284.145 97.9472C288.113 97.4522 292.108 96.9502 296.128 96.4417L295.627 92.4734C291.608 92.9816 287.616 93.4832 283.65 93.978L284.145 97.9472ZM308.265 94.897C312.302 94.38 316.364 93.8569 320.448 93.328L319.935 89.3611C315.852 89.8898 311.792 90.4126 307.757 90.9294L308.265 94.897ZM332.173 91.8023C336.101 91.2887 340.05 90.7701 344.017 90.2468L343.494 86.2812C339.528 86.8043 335.581 87.3227 331.654 87.8361L332.173 91.8023ZM355.977 88.6632C359.982 88.1307 364.006 87.5939 368.047 87.0529L367.516 83.0883C363.476 83.6291 359.454 84.1658 355.45 84.698L355.977 88.6632ZM380.222 85.4178C384.136 84.8905 388.065 84.3596 392.009 83.8254L391.472 79.8616C387.529 80.3957 383.601 80.9264 379.688 81.4536L380.222 85.4178ZM403.852 82.2172C407.814 81.678 411.789 81.1358 415.778 80.5907L415.236 76.6275C411.248 77.1725 407.274 77.7147 403.313 78.2538L403.852 82.2172ZM427.781 78.9472C431.794 78.3967 435.819 77.8436 439.856 77.2882L439.311 73.3255C435.275 73.8809 431.25 74.4339 427.237 74.9843L427.781 78.9472ZM451.819 75.6402C455.758 75.0968 459.707 74.5515 463.665 74.0045L463.117 70.0421C459.159 70.5892 455.211 71.1344 451.272 71.6777L451.819 75.6402ZM475.567 72.3583C479.543 71.8079 483.528 71.256 487.521 70.7028L486.972 66.7407C482.979 67.2939 478.994 67.8457 475.019 68.396L475.567 72.3583ZM499.521 69.0395C503.529 68.4839 507.544 67.9272 511.565 67.3696L511.016 63.4075C506.995 63.9651 502.98 64.5218 498.972 65.0774L499.521 69.0395ZM523.453 65.7215C527.415 65.1724 531.382 64.6226 535.355 64.0724L534.806 60.1103C530.833 60.6605 526.866 61.2103 522.904 61.7594L523.453 65.7215ZM547.285 62.4208C551.267 61.87 555.253 61.319 559.242 60.7679L558.695 56.8056C554.705 57.3566 550.719 57.9077 546.737 58.4586L547.285 62.4208ZM571.22 59.1151C575.21 58.565 579.203 58.0151 583.199 57.4657L582.654 53.503C578.658 54.0525 574.664 54.6024 570.674 55.1525L571.22 59.1151ZM595.129 55.8274C599.107 55.2819 603.087 54.737 607.068 54.1929L606.526 50.2298C602.545 50.7739 598.564 51.3189 594.585 51.8645L595.129 55.8274ZM619.013 52.5633C622.995 52.0211 626.977 51.4799 630.959 50.94L630.421 46.9762C626.439 47.5163 622.456 48.0576 618.473 48.5999L619.013 52.5633ZM642.903 49.324C646.892 48.7856 650.88 48.2487 654.866 47.7134L654.333 43.7489C650.346 44.2844 646.358 44.8214 642.368 45.36L642.903 49.324ZM666.847 46.1088C670.838 45.5758 674.828 45.0446 678.814 44.5156L678.287 40.5503C674.3 41.0796 670.31 41.6109 666.317 42.144L666.847 46.1088ZM690.762 42.9348C694.742 42.4101 698.717 41.8877 702.689 41.3678L702.169 37.4016C698.197 37.9217 694.22 38.4443 690.239 38.9691L690.762 42.9348ZM714.588 39.8158C718.598 39.2949 722.602 38.7768 726.601 38.2617L726.09 34.2945C722.09 34.8098 718.084 35.3281 714.073 35.8491L714.588 39.8158ZM738.623 36.7198C742.624 36.209 746.619 35.7014 750.606 35.1973L750.104 31.2289C746.115 31.7332 742.119 32.241 738.117 32.752L738.623 36.7198ZM762.545 33.6955C766.517 33.1985 770.481 32.7051 774.437 32.2157L773.945 28.246C769.988 28.7357 766.022 29.2292 762.049 29.7264L762.545 33.6955ZM786.32 30.7539C790.367 30.2591 794.404 29.7686 798.43 29.2827L797.951 25.3115C793.923 25.7977 789.884 26.2884 785.835 26.7834L786.32 30.7539ZM810.477 27.8391C814.481 27.3626 818.474 26.8909 822.454 26.4243L821.989 22.4515C818.005 22.9184 814.01 23.3903 810.004 23.8671L810.477 27.8391ZM834.359 25.0399C838.314 24.5836 842.257 24.1326 846.186 23.6872L845.735 19.7127C841.804 20.1584 837.859 20.6097 833.901 21.0662L834.359 25.0399ZM858.249 22.3323C862.309 21.8808 866.353 21.4354 870.38 20.9966L869.947 17.0202C865.916 17.4593 861.869 17.905 857.807 18.3569L858.249 22.3323ZM882.412 19.7001C886.406 19.2746 890.382 18.856 894.34 18.4443L893.926 14.4658C889.965 14.8778 885.985 15.2968 881.989 15.7226L882.412 19.7001ZM906.159 17.2309C910.169 16.8246 914.159 16.426 918.128 16.0354L917.736 12.0546C913.763 12.4456 909.769 12.8446 905.755 13.2513L906.159 17.2309ZM930.351 14.8514C934.403 14.4654 938.431 14.0882 942.435 13.7201L942.069 9.73694C938.061 10.1054 934.028 10.483 929.972 10.8694L930.351 14.8514ZM954.374 12.6435C958.329 12.294 962.258 11.9538 966.161 11.6234L965.824 7.63768C961.915 7.96851 957.981 8.30908 954.022 8.65906L954.374 12.6435ZM978.154 10.6324C982.283 10.2998 986.38 9.97876 990.445 9.66969L990.142 5.6812C986.071 5.99075 981.967 6.31226 977.833 6.64536L978.154 10.6324ZM1002.54 8.77875C1006.54 8.494 1010.5 8.22161 1014.43 7.96197L1014.17 3.97067C1010.23 4.23078 1006.26 4.50364 1002.26 4.78885L1002.54 8.77875ZM1026.11 7.22169C1030.26 6.97053 1034.36 6.73453 1038.42 6.51419L1038.2 2.52007C1034.14 2.74089 1030.02 2.97736 1025.87 3.22901L1026.11 7.22169ZM1050.68 5.89024C1054.73 5.69882 1058.72 5.52413 1062.67 5.36668L1062.51 1.36986C1058.55 1.52772 1054.55 1.70285 1050.5 1.89472L1050.68 5.89024ZM1074.36 4.94656C1078.46 4.81594 1082.51 4.70552 1086.5 4.61589L1086.41 0.616899C1082.41 0.70682 1078.35 0.81759 1074.23 0.948581L1074.36 4.94656ZM1098.87 4.40293C1102.93 4.35538 1106.92 4.33151 1110.84 4.33203L1110.84 0.332026C1106.91 0.331511 1102.9 0.355481 1098.83 0.403203L1098.87 4.40293ZM1122.39 4.40741C1126.63 4.46338 1130.77 4.5508 1134.82 4.67065L1134.93 0.672405C1130.86 0.551869 1126.7 0.464001 1122.45 0.407763L1122.39 4.40741ZM1147.05 5.14663C1151.02 5.34057 1154.9 5.57012 1158.66 5.83635L1158.94 1.84631C1155.15 1.5779 1151.25 1.34664 1147.24 1.15138L1147.05 5.14663ZM1170.7 6.85082C1174.95 7.27039 1179.03 7.74474 1182.95 8.27562L1183.49 4.31189C1179.52 3.77392 1175.39 3.29408 1171.1 2.87021L1170.7 6.85082ZM1194.18 10.039C1198.52 10.8217 1202.59 11.6892 1206.39 12.6442L1207.37 8.76463C1203.46 7.78501 1199.3 6.89917 1194.89 6.10277L1194.18 10.039ZM1217.46 15.9398C1221.61 17.4061 1225.27 19.015 1228.45 20.767L1230.38 17.2641C1226.98 15.3862 1223.1 13.6924 1218.79 12.1685L1217.46 15.9398ZM1237.24 27.1677C1240.13 30.0713 1242 33.2328 1242.89 36.6751L1246.76 35.6789C1245.68 31.4494 1243.39 27.678 1240.07 24.3446L1237.24 27.1677ZM1242.79 47.1627C1242.03 50.3974 1240.63 53.9018 1238.51 57.6899L1242 59.6413C1244.26 55.6022 1245.82 51.7501 1246.69 48.0804L1242.79 47.1627ZM1231.97 67.4114C1230.64 69.1194 1229.19 70.8705 1227.62 72.6652L1230.63 75.2987C1232.25 73.4508 1233.75 71.6402 1235.13 69.8662L1231.97 67.4114Z" fill="#016099"/>
</svg>
