<svg width="135" height="33" viewBox="0 0 135 33" fill="none" xmlns="http://www.w3.org/2000/svg">
<path d="M6.34056 18.3362C3.78354 13.5748 5.52741 7.52763 10.2251 4.8555L10.7492 4.55669L7.89339 0.272949L7.43537 0.54482C0.430516 4.7012 -2.03833 13.5822 1.81679 20.7658C2.34583 21.7455 2.96549 22.6517 3.66108 23.46L3.98928 23.8396L8.28282 20.903L7.8346 20.4254C7.25168 19.8008 6.74958 19.0979 6.34056 18.3362Z" fill="white"/>
<path d="M10.4677 19.4735L15.3075 16.2748L14.5506 15.8143C14.2028 15.6037 13.0688 14.8224 13.0688 13.6786C13.0664 12.5789 13.904 11.7951 14.6878 11.4302L15.2952 11.1485L12.1945 6.71045L11.7487 6.97007C11.1731 7.30317 10.6392 7.71709 10.164 8.19715C8.69693 9.6667 7.89112 11.6187 7.89602 13.6884C7.89357 14.8836 8.17279 16.0764 8.70182 17.1345C9.07166 17.8839 9.55661 18.5624 10.1444 19.1526L10.4677 19.4735Z" fill="white"/>
<path fill-rule="evenodd" clip-rule="evenodd" d="M29.6627 18.9037C29.6627 11.5167 35.6536 5.53076 43.0405 5.53076C50.4226 5.53076 56.4134 11.5167 56.4134 18.9037C56.4134 26.2906 50.425 32.2766 43.0405 32.2766C35.6536 32.2766 29.6627 26.2906 29.6627 18.9037ZM35.1515 18.9037C35.1515 23.2609 38.6833 26.7927 43.0405 26.7927C47.3953 26.7927 50.9247 23.2584 50.9247 18.9037C50.9247 14.5464 47.3953 11.0146 43.0405 11.0146C38.6809 11.0146 35.1515 14.5489 35.1515 18.9037ZM23.4731 11.1151L23.9286 5.98389L14.5652 5.98878C13.9896 5.99123 13.4238 6.05981 12.8752 6.18717L12.8213 6.19942L16.2576 11.1175L23.4731 11.1151ZM134.142 8.09092C132.488 6.82466 130.328 6.13152 128.21 6.17316C125.371 6.17316 123.093 7.06223 121.516 8.76446L121.393 7.27042L121.291 6.60178H116.262V31.6405H121.633V17.7851C121.633 14.1014 124.183 11.4954 127.825 11.4488C129.238 11.4488 130.343 11.7966 131.516 12.6073L132.192 13.0751L134.629 8.4632L134.142 8.09092ZM63.8333 9.18629C65.8099 7.23178 68.3448 6.21045 71.2644 6.21045C77.8969 6.21045 82.3521 10.8959 82.3546 17.8738V31.6337H76.9833V17.9203C76.9833 13.7737 74.5782 11.2975 70.5516 11.2975C66.7724 11.3392 64.0244 14.2636 64.0244 18.2534V31.6312H58.6997V6.59253L59.4271 6.54355H63.6986L63.8333 9.18629ZM105.949 9.45693L105.981 6.59375H111.246V31.6324H105.936L105.875 28.8501C103.61 31.2871 100.406 32.2031 97.8687 32.2031C90.3299 32.2031 85.064 26.8197 85.064 19.1119C85.064 15.3425 86.3131 12.1119 88.6742 9.76799C91.0108 7.44855 94.305 6.16514 97.9225 6.21167C101.099 6.21167 104.004 7.41915 105.949 9.45693ZM103.908 24.7109C105.165 23.2732 105.858 21.3309 105.858 19.2417C105.858 15.509 103.524 11.4971 98.4099 11.3502L98.3659 11.3943H98.0621C93.5163 11.3943 90.3421 14.6273 90.3421 19.2564C90.3421 23.8414 93.5898 27.1674 98.0621 27.1674C100.48 27.1674 102.503 26.3176 103.908 24.7109ZM27.4734 23.9348C27.4734 25.9897 26.6725 27.9197 25.2226 29.3721C23.7848 30.8172 21.8671 31.623 19.8268 31.6328L8.78809 31.6401L9.24364 26.504L19.7803 26.4967C21.2009 26.4894 22.3398 25.3407 22.3373 23.9348C22.3373 23.1682 21.9944 22.4481 21.3968 21.9607C20.9437 21.586 20.3681 21.3802 19.7754 21.3802L14.6491 21.3876C13.3902 21.3876 12.1509 21.0888 11.0585 20.5181L10.9312 20.4495L17.2968 16.2417L19.7754 16.2441C21.5168 16.2466 23.1529 16.8124 24.5074 17.8729C24.7376 18.0517 24.9752 18.2623 25.2103 18.4926C26.1459 19.4233 26.8268 20.5793 27.182 21.8358C27.373 22.5191 27.4734 23.227 27.4734 23.9348Z" fill="white"/>
</svg>
