<svg width="28" height="21" viewBox="0 0 28 21" fill="none" xmlns="http://www.w3.org/2000/svg">
<path d="M25.6667 0.272949H2.33335C1.89133 0.272949 1.4674 0.448544 1.15484 0.761104C0.842282 1.07367 0.666687 1.49759 0.666687 1.93962V18.6063C0.666687 19.0483 0.842282 19.4722 1.15484 19.7848C1.4674 20.0974 1.89133 20.2729 2.33335 20.2729H25.6667C26.1087 20.2729 26.5326 20.0974 26.8452 19.7848C27.1578 19.4722 27.3334 19.0483 27.3334 18.6063V1.93962C27.3334 1.49759 27.1578 1.07367 26.8452 0.761104C26.5326 0.448544 26.1087 0.272949 25.6667 0.272949ZM24.3834 18.6063H3.71669L9.55002 12.5729L8.35002 11.4146L2.33335 17.6396V3.20628L12.6917 13.5146C13.004 13.825 13.4264 13.9993 13.8667 13.9993C14.307 13.9993 14.7294 13.825 15.0417 13.5146L25.6667 2.94795V17.5313L19.5334 11.3979L18.3584 12.5729L24.3834 18.6063ZM3.42502 1.93962H24.3167L13.8667 12.3313L3.42502 1.93962Z" fill="#949494"/>
</svg>
