<svg width="22" height="23" viewBox="0 0 22 23" fill="none" xmlns="http://www.w3.org/2000/svg">
<path fill-rule="evenodd" clip-rule="evenodd" d="M6.84291 1.2502C7.91816 1.2007 8.261 1.1897 11 1.1897C13.739 1.1897 14.0818 1.20161 15.1562 1.2502C16.2305 1.29878 16.9638 1.4702 17.6055 1.71861C18.2774 1.97253 18.887 2.36945 19.3912 2.88278C19.9045 3.38603 20.3005 3.9947 20.5535 4.66753C20.8028 5.3092 20.9733 6.04253 21.0228 7.11503C21.0723 8.19211 21.0833 8.53495 21.0833 11.273C21.0833 14.012 21.0714 14.3549 21.0228 15.4301C20.9742 16.5026 20.8028 17.2359 20.5535 17.8776C20.3005 18.5505 19.9038 19.1602 19.3912 19.6642C18.887 20.1775 18.2774 20.5735 17.6055 20.8265C16.9638 21.0759 16.2305 21.2464 15.158 21.2959C14.0818 21.3454 13.739 21.3564 11 21.3564C8.261 21.3564 7.91816 21.3444 6.84291 21.2959C5.77041 21.2473 5.03708 21.0759 4.39541 20.8265C3.72251 20.5735 3.11283 20.1768 2.60883 19.6642C2.09585 19.1606 1.69887 18.5513 1.44558 17.8785C1.19716 17.2369 1.02666 16.5035 0.977164 15.431C0.927664 14.3539 0.916664 14.0111 0.916664 11.273C0.916664 8.53403 0.928581 8.1912 0.977164 7.11686C1.02575 6.04253 1.19716 5.3092 1.44558 4.66753C1.69924 3.99477 2.09652 3.3854 2.60975 2.88186C3.11303 2.36899 3.7221 1.97202 4.3945 1.71861C5.03616 1.4702 5.7695 1.2997 6.842 1.2502H6.84291ZM15.0746 3.0652C14.0112 3.01661 13.6922 3.00653 11 3.00653C8.30775 3.00653 7.98875 3.01661 6.92541 3.0652C5.94183 3.11011 5.40833 3.2742 5.05266 3.41261C4.58241 3.59595 4.246 3.8132 3.89308 4.16611C3.55854 4.49158 3.30108 4.88779 3.13958 5.3257C3.00116 5.68136 2.83708 6.21486 2.79216 7.19845C2.74358 8.26178 2.7335 8.58078 2.7335 11.273C2.7335 13.9653 2.74358 14.2843 2.79216 15.3476C2.83708 16.3312 3.00116 16.8647 3.13958 17.2204C3.30091 17.6576 3.5585 18.0545 3.89308 18.3799C4.2185 18.7145 4.61541 18.9721 5.05266 19.1334C5.40833 19.2719 5.94183 19.4359 6.92541 19.4809C7.98875 19.5294 8.30683 19.5395 11 19.5395C13.6932 19.5395 14.0112 19.5294 15.0746 19.4809C16.0582 19.4359 16.5917 19.2719 16.9473 19.1334C17.4176 18.9501 17.754 18.7329 18.1069 18.3799C18.4415 18.0545 18.6991 17.6576 18.8604 17.2204C18.9988 16.8647 19.1629 16.3312 19.2078 15.3476C19.2564 14.2843 19.2665 13.9653 19.2665 11.273C19.2665 8.58078 19.2564 8.26178 19.2078 7.19845C19.1629 6.21486 18.9988 5.68136 18.8604 5.3257C18.6771 4.85545 18.4598 4.51903 18.1069 4.16611C17.7814 3.8316 17.3852 3.57414 16.9473 3.41261C16.5917 3.2742 16.0582 3.11011 15.0746 3.0652V3.0652ZM9.71208 14.3814C10.4314 14.6809 11.2323 14.7213 11.978 14.4958C12.7238 14.2703 13.3681 13.7929 13.801 13.1451C14.2338 12.4973 14.4284 11.7193 14.3514 10.944C14.2744 10.1688 13.9306 9.44426 13.3787 8.89428C13.027 8.54272 12.6016 8.27353 12.1333 8.10608C11.665 7.93864 11.1654 7.87711 10.6705 7.92593C10.1755 7.97475 9.69755 8.13269 9.27099 8.3884C8.84442 8.64411 8.47985 8.99121 8.20353 9.40473C7.9272 9.81824 7.746 10.2879 7.67297 10.7798C7.59994 11.2718 7.63689 11.7738 7.78116 12.2498C7.92543 12.7257 8.17344 13.1638 8.50733 13.5324C8.84121 13.901 9.25267 14.191 9.71208 14.3814ZM7.33516 7.6082C7.81644 7.12692 8.38779 6.74516 9.0166 6.4847C9.64542 6.22423 10.3194 6.09017 11 6.09017C11.6806 6.09017 12.3546 6.22423 12.9834 6.4847C13.6122 6.74516 14.1836 7.12692 14.6648 7.6082C15.1461 8.08947 15.5279 8.66082 15.7883 9.28964C16.0488 9.91845 16.1829 10.5924 16.1829 11.273C16.1829 11.9537 16.0488 12.6276 15.7883 13.2564C15.5279 13.8852 15.1461 14.4566 14.6648 14.9379C13.6929 15.9098 12.3746 16.4559 11 16.4559C9.62542 16.4559 8.30714 15.9098 7.33516 14.9379C6.36319 13.9659 5.81714 12.6476 5.81714 11.273C5.81714 9.89845 6.36319 8.58017 7.33516 7.6082V7.6082ZM17.3323 6.86203C17.4516 6.74953 17.5471 6.61424 17.6131 6.46417C17.6791 6.31411 17.7144 6.15232 17.7168 5.98838C17.7192 5.82445 17.6887 5.6617 17.627 5.50977C17.5654 5.35785 17.4739 5.21983 17.358 5.1039C17.242 4.98797 17.104 4.89648 16.9521 4.83484C16.8002 4.7732 16.6374 4.74268 16.4735 4.74507C16.3095 4.74746 16.1478 4.78271 15.9977 4.84875C15.8476 4.91479 15.7123 5.01027 15.5998 5.12953C15.381 5.36147 15.2612 5.66956 15.2659 5.98838C15.2705 6.30721 15.3993 6.61167 15.6247 6.83714C15.8502 7.0626 16.1547 7.19132 16.4735 7.19597C16.7923 7.20062 17.1004 7.08083 17.3323 6.86203V6.86203Z" fill="white"/>
</svg>
