<svg width="76" height="77" viewBox="0 0 76 77" fill="none" xmlns="http://www.w3.org/2000/svg">
<circle cx="38" cy="38.2729" r="38" fill="#016099"/>
<g clip-path="url(#clip0_1_214)">
<path d="M26.5897 25.6411C27.3184 25.6413 28.0308 25.4254 28.6367 25.0207C29.2427 24.6159 29.7151 24.0406 29.9941 23.3675C30.273 22.6943 30.3461 21.9535 30.204 21.2388C30.062 20.5241 29.7112 19.8676 29.1959 19.3523C28.6807 18.837 28.0243 18.486 27.3096 18.3438C26.5949 18.2016 25.854 18.2745 25.1808 18.5533C24.5075 18.8321 23.9321 19.3043 23.5272 19.9102C23.1223 20.516 22.9063 21.2284 22.9062 21.957C22.9071 22.9337 23.2955 23.8701 23.986 24.5608C24.6766 25.2515 25.613 25.64 26.5897 25.6411ZM26.5897 19.4854C27.0788 19.4853 27.5569 19.6301 27.9636 19.9018C28.3704 20.1734 28.6874 20.5595 28.8747 21.0113C29.0619 21.4631 29.111 21.9603 29.0156 22.44C28.9202 22.9197 28.6847 23.3603 28.3389 23.7062C27.993 24.052 27.5524 24.2875 27.0727 24.3829C26.593 24.4782 26.0957 24.4292 25.6439 24.242C25.1921 24.0547 24.8059 23.7377 24.5343 23.331C24.2627 22.9243 24.1178 22.4461 24.1179 21.957C24.1186 21.3017 24.3792 20.6735 24.8426 20.2101C25.306 19.7467 25.9343 19.4861 26.5897 19.4854Z" fill="white"/>
<path d="M49.4069 25.6411C50.1356 25.6411 50.8479 25.4251 51.4538 25.0202C52.0596 24.6154 52.5318 24.0401 52.8107 23.3669C53.0895 22.6937 53.1625 21.953 53.0203 21.2383C52.8782 20.5237 52.5273 19.8672 52.0121 19.352C51.4968 18.8368 50.8403 18.4859 50.1257 18.3437C49.411 18.2016 48.6702 18.2745 47.997 18.5534C47.3238 18.8322 46.7484 19.3044 46.3436 19.9103C45.9387 20.5161 45.7227 21.2284 45.7227 21.957C45.7235 22.9339 46.112 23.8704 46.8027 24.5611C47.4935 25.2518 48.43 25.6402 49.4069 25.6411ZM49.4069 19.4854C49.896 19.4853 50.3742 19.6301 50.7809 19.9018C51.1876 20.1734 51.5047 20.5595 51.6919 21.0113C51.8792 21.4631 51.9282 21.9603 51.8328 22.44C51.7374 22.9197 51.5019 23.3603 51.1561 23.7062C50.8102 24.052 50.3696 24.2875 49.8899 24.3829C49.4102 24.4782 48.913 24.4292 48.4611 24.242C48.0093 24.0547 47.6232 23.7377 47.3515 23.331C47.0799 22.9243 46.935 22.4461 46.9352 21.957C46.9358 21.3017 47.1965 20.6735 47.6599 20.2101C48.1233 19.7467 48.7516 19.4861 49.4069 19.4854Z" fill="white"/>
<path d="M53.8799 27.2027H45.8964C45.1284 27.1999 44.375 27.4129 43.722 27.8173C43.069 28.2217 42.5427 28.8013 42.203 29.4901L38.0004 37.9466L33.7962 29.4901C33.4572 28.8034 32.9327 28.2252 32.2823 27.821C31.6318 27.4167 30.8811 27.2025 30.1153 27.2027H22.1201C21.0278 27.204 19.9806 27.6385 19.2082 28.4108C18.4358 29.1832 18.0013 30.2303 18 31.3226V41.5724C18.0002 42.1993 18.2492 42.8005 18.6923 43.2441C19.1354 43.6877 19.7364 43.9373 20.3634 43.9381C20.7674 43.9356 21.1637 43.8279 21.5134 43.6257V55.4587C21.5207 56.0468 21.7101 56.6182 22.0554 57.0942C22.4007 57.5703 22.885 57.9277 23.4418 58.1172C23.9985 58.3068 24.6003 58.3192 25.1644 58.1528C25.7285 57.9864 26.2272 57.6493 26.5918 57.1879C26.9571 57.6482 27.4559 57.9842 28.0198 58.1497C28.5837 58.3152 29.185 58.3021 29.7411 58.1122C30.2972 57.9222 30.7809 57.5648 31.1257 57.0889C31.4706 56.6131 31.6596 56.0422 31.667 55.4546V38.9074C31.6611 38.7505 31.5947 38.602 31.4817 38.4931C31.3686 38.3841 31.2177 38.3232 31.0607 38.3232C30.9037 38.3232 30.7528 38.3841 30.6397 38.4931C30.5267 38.602 30.4602 38.7505 30.4544 38.9074V41.3832H22.7259V31.9334C22.7201 31.7765 22.6537 31.628 22.5406 31.519C22.4276 31.4101 22.2767 31.3492 22.1197 31.3492C21.9627 31.3492 21.8118 31.4101 21.6987 31.519C21.5856 31.628 21.5192 31.7765 21.5134 31.9334V41.5732C21.5134 41.7243 21.4836 41.874 21.4258 42.0136C21.368 42.1532 21.2832 42.2801 21.1763 42.3869C21.0695 42.4938 20.9426 42.5786 20.803 42.6364C20.6633 42.6942 20.5137 42.724 20.3625 42.724C20.2114 42.724 20.0618 42.6942 19.9221 42.6364C19.7825 42.5786 19.6556 42.4938 19.5488 42.3869C19.4419 42.2801 19.3571 42.1532 19.2993 42.0136C19.2415 41.874 19.2117 41.7243 19.2117 41.5732V31.3234C19.2126 30.5524 19.5193 29.8133 20.0646 29.2682C20.6098 28.7231 21.3491 28.4166 22.1201 28.416H26.0268C26.0675 28.5335 26.1439 28.6355 26.2452 28.7076C26.3465 28.7798 26.4679 28.8186 26.5923 28.8186C26.7167 28.8186 26.838 28.7798 26.9393 28.7076C27.0407 28.6355 27.117 28.5335 27.1577 28.416H30.1128C30.6534 28.4155 31.1833 28.5666 31.6425 28.852C32.1016 29.1375 32.4715 29.5459 32.7103 30.0309L37.2737 39.2091C37.341 39.3444 37.3809 39.4917 37.3912 39.6425C37.4016 39.7933 37.3821 39.9447 37.3339 40.088C37.2857 40.2312 37.2098 40.3636 37.1105 40.4775C37.0112 40.5915 36.8903 40.6847 36.755 40.752C36.6196 40.8192 36.4723 40.8591 36.3215 40.8695C36.1707 40.8798 36.0193 40.8603 35.8761 40.8121C35.7328 40.764 35.6004 40.6881 35.4865 40.5887C35.3725 40.4894 35.2793 40.3686 35.212 40.2332L30.9211 31.6051C30.843 31.4733 30.7179 31.3759 30.5709 31.3325C30.424 31.2891 30.266 31.303 30.1289 31.3712C29.9917 31.4395 29.8854 31.5572 29.8314 31.7005C29.7774 31.8439 29.7797 32.0024 29.8377 32.1442L34.1262 40.7715C34.2965 41.1183 34.5496 41.4178 34.8632 41.6436C35.1767 41.8694 35.541 42.0145 35.9239 42.0662C36.3068 42.1178 36.6966 42.0744 37.0587 41.9397C37.4209 41.8051 37.7443 41.5833 38.0004 41.294C38.2574 41.582 38.581 41.8025 38.943 41.9363C39.305 42.0701 39.6942 42.1131 40.0767 42.0616C40.4591 42.01 40.8231 41.8654 41.1367 41.6405C41.4503 41.4156 41.704 41.1172 41.8755 40.7715L46.1673 32.1401C46.2097 32.0683 46.2369 31.9885 46.2471 31.9057C46.2572 31.823 46.2502 31.739 46.2265 31.659C46.2027 31.5791 46.1627 31.5049 46.1089 31.4412C46.0551 31.3774 45.9888 31.3255 45.914 31.2885C45.8392 31.2516 45.7576 31.2305 45.6743 31.2266C45.591 31.2226 45.5078 31.2359 45.4299 31.2657C45.3519 31.2954 45.281 31.3409 45.2215 31.3993C45.1619 31.4577 45.1151 31.5277 45.0839 31.6051L40.7896 40.2316C40.6499 40.4982 40.4112 40.6996 40.1248 40.7925C39.8384 40.8854 39.527 40.8624 39.2573 40.7285C38.9876 40.5946 38.7811 40.3604 38.682 40.0761C38.5829 39.7918 38.5991 39.4799 38.7271 39.2074L43.2897 30.0293C43.5294 29.5428 43.9009 29.1335 44.3619 28.848C44.823 28.5624 45.355 28.4122 45.8972 28.4143H53.8807C54.6516 28.4152 55.3906 28.7218 55.9357 29.2668C56.4808 29.8119 56.7874 30.5509 56.7883 31.3217V41.5715C56.7883 41.7227 56.7585 41.8723 56.7007 42.0119C56.6429 42.1515 56.5581 42.2784 56.4512 42.3853C56.3444 42.4921 56.2175 42.5769 56.0779 42.6347C55.9382 42.6926 55.7886 42.7223 55.6375 42.7223C55.4863 42.7223 55.3367 42.6926 55.197 42.6347C55.0574 42.5769 54.9305 42.4921 54.8237 42.3853C54.7168 42.2784 54.632 42.1515 54.5742 42.0119C54.5164 41.8723 54.4866 41.7227 54.4866 41.5715V31.9326C54.4866 31.7717 54.4227 31.6174 54.3089 31.5036C54.1951 31.3898 54.0408 31.3259 53.8799 31.3259C53.719 31.3259 53.5647 31.3898 53.4509 31.5036C53.3372 31.6174 53.2732 31.7717 53.2732 31.9326V41.3824H45.5414V38.9066C45.5356 38.7497 45.4692 38.6012 45.3561 38.4922C45.243 38.3833 45.0922 38.3224 44.9351 38.3224C44.7781 38.3224 44.6272 38.3833 44.5142 38.4922C44.4011 38.6012 44.3347 38.7497 44.3289 38.9066V55.4537C44.3352 56.0422 44.5238 56.6143 44.8687 57.0911C45.2137 57.568 45.698 57.9262 46.2549 58.1163C46.8119 58.3065 47.4141 58.3194 47.9787 58.1531C48.5433 57.9868 49.0424 57.6496 49.4073 57.1879C49.7724 57.6497 50.2717 57.987 50.8365 58.1532C51.4013 58.3194 52.0038 58.3064 52.5609 58.1159C53.1179 57.9254 53.6022 57.5668 53.947 57.0896C54.2917 56.6124 54.48 56.0399 54.4858 55.4512V43.6182C54.8355 43.8204 55.2318 43.9281 55.6358 43.9306C56.2617 43.9302 56.862 43.6818 57.3053 43.2398C57.7485 42.7979 57.9986 42.1983 58.0008 41.5724V31.3217C57.9993 30.2295 57.5646 29.1824 56.792 28.4102C56.0195 27.638 54.9722 27.2038 53.8799 27.2027ZM22.7251 42.5948H30.4569V55.4546C30.4569 55.8869 30.2852 56.3015 29.9795 56.6071C29.6738 56.9128 29.2592 57.0845 28.8269 57.0845C28.3946 57.0845 27.98 56.9128 27.6743 56.6071C27.3686 56.3015 27.1969 55.8869 27.1969 55.4546V44.9381C27.1999 44.8566 27.1864 44.7753 27.1573 44.6992C27.1282 44.623 27.0841 44.5534 27.0275 44.4947C26.9709 44.436 26.903 44.3893 26.8279 44.3573C26.7529 44.3254 26.6722 44.309 26.5906 44.309C26.509 44.309 26.4283 44.3254 26.3532 44.3573C26.2782 44.3893 26.2103 44.436 26.1537 44.4947C26.0971 44.5534 26.053 44.623 26.0239 44.6992C25.9948 44.7753 25.9813 44.8566 25.9843 44.9381V55.4546C25.9747 55.8806 25.7987 56.2859 25.494 56.5838C25.1893 56.8817 24.78 57.0485 24.3539 57.0485C23.9277 57.0485 23.5185 56.8817 23.2138 56.5838C22.9091 56.2859 22.7331 55.8806 22.7234 55.4546V42.5948H22.7251ZM53.2732 55.4546C53.2732 55.8869 53.1015 56.3015 52.7958 56.6071C52.4901 56.9128 52.0755 57.0845 51.6432 57.0845C51.2109 57.0845 50.7963 56.9128 50.4906 56.6071C50.1849 56.3015 50.0132 55.8869 50.0132 55.4546V44.9381C50.0162 44.8566 50.0027 44.7753 49.9736 44.6992C49.9445 44.623 49.9004 44.5534 49.8438 44.4947C49.7872 44.436 49.7193 44.3893 49.6443 44.3573C49.5692 44.3254 49.4885 44.309 49.4069 44.309C49.3253 44.309 49.2446 44.3254 49.1696 44.3573C49.0945 44.3893 49.0266 44.436 48.97 44.4947C48.9134 44.5534 48.8693 44.623 48.8402 44.6992C48.8111 44.7753 48.7976 44.8566 48.8006 44.9381V55.4546C48.8006 55.8869 48.6289 56.3015 48.3232 56.6071C48.0175 56.9128 47.6029 57.0845 47.1706 57.0845C46.7383 57.0845 46.3237 56.9128 46.018 56.6071C45.7123 56.3015 45.5406 55.8869 45.5406 55.4546V42.5948H53.2724L53.2732 55.4546Z" fill="white"/>
<path d="M27.1969 36.2399C27.1911 36.083 27.1247 35.9345 27.0116 35.8256C26.8985 35.7166 26.7476 35.6558 26.5906 35.6558C26.4336 35.6558 26.2827 35.7166 26.1697 35.8256C26.0566 35.9345 25.9902 36.083 25.9844 36.2399V36.9708C25.9902 37.1276 26.0566 37.2762 26.1697 37.3851C26.2827 37.4941 26.4336 37.5549 26.5906 37.5549C26.7476 37.5549 26.8985 37.4941 27.0116 37.3851C27.1247 37.2762 27.1911 37.1276 27.1969 36.9708V36.2399Z" fill="white"/>
<path d="M27.1969 30.404C27.1911 30.2471 27.1247 30.0986 27.0116 29.9896C26.8985 29.8807 26.7476 29.8198 26.5906 29.8198C26.4336 29.8198 26.2827 29.8807 26.1697 29.9896C26.0566 30.0986 25.9902 30.2471 25.9844 30.404V31.1348C25.9902 31.2917 26.0566 31.4402 26.1697 31.5492C26.2827 31.6581 26.4336 31.719 26.5906 31.719C26.7476 31.719 26.8985 31.6581 27.0116 31.5492C27.1247 31.4402 27.1911 31.2917 27.1969 31.1348V30.404Z" fill="white"/>
<path d="M27.1973 33.324C27.2003 33.2425 27.1869 33.1612 27.1578 33.085C27.1287 33.0088 27.0845 32.9393 27.0279 32.8805C26.9713 32.8218 26.9035 32.7751 26.8284 32.7432C26.7533 32.7113 26.6726 32.6948 26.5911 32.6948C26.5095 32.6948 26.4288 32.7113 26.3537 32.7432C26.2786 32.7751 26.2108 32.8218 26.1542 32.8805C26.0976 32.9393 26.0534 33.0088 26.0243 33.085C25.9952 33.1612 25.9818 33.2425 25.9848 33.324V34.0531C25.9906 34.21 26.057 34.3585 26.1701 34.4675C26.2832 34.5764 26.434 34.6373 26.5911 34.6373C26.7481 34.6373 26.899 34.5764 27.012 34.4675C27.1251 34.3585 27.1915 34.21 27.1973 34.0531V33.324Z" fill="white"/>
<path d="M26.5902 38.5542C26.5106 38.5543 26.4317 38.5701 26.3581 38.6007C26.2846 38.6313 26.2177 38.6761 26.1615 38.7325C26.1052 38.7889 26.0606 38.8558 26.0302 38.9295C25.9998 39.0031 25.9843 39.082 25.9844 39.1617V39.565C25.9902 39.7219 26.0566 39.8704 26.1697 39.9794C26.2827 40.0883 26.4336 40.1492 26.5906 40.1492C26.7476 40.1492 26.8985 40.0883 27.0116 39.9794C27.1247 39.8704 27.1911 39.7219 27.1969 39.565V39.1617C27.1969 39.0007 27.133 38.8463 27.0193 38.7324C26.9055 38.6185 26.7512 38.5544 26.5902 38.5542Z" fill="white"/>
</g>
<defs>
<clipPath id="clip0_1_214">
<rect width="40" height="40" fill="white" transform="translate(18 18.2729)"/>
</clipPath>
</defs>
</svg>
