<svg width="22" height="23" viewBox="0 0 22 23" fill="none" xmlns="http://www.w3.org/2000/svg">
<path fill-rule="evenodd" clip-rule="evenodd" d="M8.64325 8.49445H12.0478V10.1903C12.5382 9.21495 13.7958 8.33862 15.6851 8.33862C19.3068 8.33862 20.1667 10.2801 20.1667 13.8423V20.4395H16.5V14.6535C16.5 12.625 16.0096 11.481 14.7611 11.481C13.0295 11.481 12.3099 12.7139 12.3099 14.6526V20.4395H8.64325V8.49445ZM2.35584 20.2837H6.0225V8.33862H2.35584V20.2837ZM6.54775 4.4437C6.54789 4.75104 6.48694 5.05533 6.36844 5.33891C6.24994 5.62248 6.07627 5.87967 5.8575 6.09554C5.4142 6.53611 4.81416 6.78272 4.18917 6.7812C3.56528 6.78078 2.96662 6.5348 2.52267 6.09645C2.3047 5.87985 2.13161 5.62237 2.01332 5.33876C1.89503 5.05515 1.83387 4.75099 1.83334 4.4437C1.83334 3.82312 2.08084 3.22912 2.52359 2.79095C2.96715 2.35201 3.56606 2.10593 4.19009 2.1062C4.81525 2.1062 5.41475 2.35278 5.8575 2.79095C6.29934 3.22912 6.54775 3.82312 6.54775 4.4437Z" fill="white"/>
</svg>
