<svg width="150" height="39" viewBox="0 0 150 39" fill="none" xmlns="http://www.w3.org/2000/svg">
<path d="M7.0645 21.7241C4.21553 16.0697 6.15851 8.88833 11.3925 5.71501L11.9765 5.36016L8.79463 0.272949L8.28432 0.595812C0.479672 5.53177 -2.27106 16.0785 2.02423 24.6095C2.61367 25.773 3.30408 26.8491 4.07909 27.809L4.44477 28.2599L9.22853 24.7724L8.72913 24.2052C8.07966 23.4635 7.52023 22.6287 7.0645 21.7241Z" fill="#016099"/>
<path d="M11.6632 23.0666L17.0555 19.2679L16.2123 18.7211C15.8248 18.4709 14.5613 17.5431 14.5613 16.1848C14.5586 14.8788 15.4919 13.948 16.3651 13.5146L17.0419 13.1801L13.5871 7.9097L13.0904 8.21801C12.4491 8.61359 11.8542 9.10515 11.3248 9.67524C9.69023 11.4204 8.79242 13.7386 8.79788 16.1964C8.79515 17.6158 9.10624 19.0323 9.69569 20.2888C10.1078 21.1789 10.6481 21.9846 11.303 22.6856L11.6632 23.0666Z" fill="#016099"/>
<path fill-rule="evenodd" clip-rule="evenodd" d="M33.0498 22.3879C33.0498 13.6154 39.7247 6.50673 47.9551 6.50673C56.18 6.50673 62.8548 13.6154 62.8548 22.3879C62.8548 31.1603 56.1827 38.269 47.9551 38.269C39.7247 38.269 33.0498 31.1603 33.0498 22.3879ZM39.1653 22.3879C39.1653 27.5623 43.1003 31.7566 47.9551 31.7566C52.807 31.7566 56.7394 27.5594 56.7394 22.3879C56.7394 17.2134 52.807 13.0192 47.9551 13.0192C43.0976 13.0192 39.1653 17.2163 39.1653 22.3879ZM26.1531 13.1347L26.6607 7.04108L16.2281 7.04689C15.5868 7.0498 14.9565 7.13124 14.3452 7.28249L14.2852 7.29704L18.1138 13.1376L26.1531 13.1347ZM149.457 9.5492C147.615 8.04544 145.208 7.2223 142.848 7.27175C139.685 7.27175 137.147 8.32758 135.39 10.3491L135.253 8.57481L135.139 7.78076H129.536V37.5157H135.521V21.0616C135.521 16.687 138.361 13.5922 142.419 13.537C143.994 13.537 145.225 13.95 146.532 14.9127L147.285 15.4683L150 9.99131L149.457 9.5492ZM71.1216 10.8607C73.3239 8.53957 76.1483 7.32667 79.4011 7.32667C86.791 7.32667 91.7548 12.8909 91.7576 21.1776V37.5183H85.7731V21.2329C85.7731 16.3085 83.0933 13.3679 78.607 13.3679C74.3963 13.4174 71.3345 16.8903 71.3345 21.6284V37.5154H65.4019V7.78041L66.2123 7.72225H70.9715L71.1216 10.8607ZM118.046 11.1821L118.081 7.78187H123.948V37.5168H118.032L117.964 34.2126C115.44 37.1067 111.87 38.1946 109.043 38.1946C100.644 38.1946 94.7764 31.8014 94.7764 22.6479C94.7764 18.1715 96.1681 14.335 98.7988 11.5515C101.402 8.79699 105.073 7.27286 109.103 7.32812C112.642 7.32812 115.879 8.76208 118.046 11.1821ZM115.773 29.2971C117.172 27.5897 117.945 25.2831 117.945 22.8021C117.945 18.3693 115.344 13.6049 109.646 13.4304L109.597 13.4828H109.259C104.194 13.4828 100.657 17.3222 100.657 22.8195C100.657 28.2645 104.276 32.2144 109.259 32.2144C111.952 32.2144 114.206 31.2051 115.773 29.2971ZM30.6103 28.3632C30.6103 30.8036 29.7179 33.0956 28.1024 34.8204C26.5005 36.5365 24.3638 37.4934 22.0906 37.5051L9.7915 37.5138L10.2991 31.4144L22.0388 31.4057C23.6216 31.3969 24.8905 30.0328 24.8878 28.3632C24.8878 27.4528 24.5057 26.5977 23.8399 26.0189C23.335 25.5739 22.6937 25.3295 22.0333 25.3295L16.3218 25.3382C14.9191 25.3382 13.5383 24.9834 12.3212 24.3057L12.1793 24.2243L19.2717 19.2272L22.0333 19.2301C23.9736 19.233 25.7965 19.9049 27.3056 21.1644C27.5621 21.3767 27.8268 21.6268 28.0888 21.9003C29.1312 23.0055 29.8898 24.3784 30.2855 25.8705C30.4984 26.682 30.6103 27.5226 30.6103 28.3632Z" fill="#016099"/>
</svg>
