<svg width="76" height="77" viewBox="0 0 76 77" fill="none" xmlns="http://www.w3.org/2000/svg">
<circle cx="38" cy="38.2729" r="38" fill="#016099"/>
<g clip-path="url(#clip0_1_228)">
<path d="M32.6475 47.4408C24.7134 47.4408 18.2565 40.8998 18.2537 32.8604C18.2518 28.9839 19.7428 25.3289 22.4518 22.5686C25.1743 19.7983 28.7943 18.2729 32.645 18.2729C36.4984 18.2729 40.1125 19.7908 42.8365 22.547C45.5584 25.3023 47.0575 28.9629 47.0575 32.8545C47.0581 36.7314 45.5681 40.3845 42.8622 43.1404C40.1343 45.9136 36.5109 47.4408 32.6594 47.4408C32.659 47.4408 32.6597 47.4408 32.6594 47.4408L32.6472 46.8158L32.6562 46.1908C36.1728 46.1908 39.48 44.7964 41.9706 42.2645C44.4453 39.7442 45.8078 36.4023 45.8072 32.8548C45.8072 29.2939 44.4362 25.9454 41.9468 23.4258C39.46 20.9089 36.1618 19.5229 32.6603 19.5229C29.1325 19.5229 25.829 20.9158 23.3437 23.4445C20.8656 25.9692 19.5022 29.3133 19.5037 32.8598C19.5059 40.2104 25.4025 46.1908 32.6475 46.1908V47.4408Z" fill="white"/>
<path d="M32.6492 43.9979C29.7126 43.9979 26.9495 42.8367 24.8692 40.7279C22.7908 38.6211 21.647 35.8248 21.6483 32.8539C21.6476 29.8901 22.7876 27.0976 24.8589 24.9914C26.9395 22.8726 29.7076 21.7045 32.6533 21.7026C35.5976 21.7026 38.3623 22.8645 40.4417 24.9745C42.5198 27.0776 43.6664 29.8742 43.6695 32.8483C43.6701 35.8133 42.5301 38.6045 40.4598 40.7089C38.3758 42.8295 35.6051 43.9976 32.6579 43.9979H32.6492ZM32.6573 22.9526C30.0464 22.9542 27.5948 23.9892 25.7508 25.8676C23.9108 27.7389 22.8979 30.2198 22.8986 32.8542C22.8976 35.4945 23.9136 37.9789 25.7595 39.8501C27.6029 41.7189 30.0498 42.7479 32.6495 42.7479V43.3729L32.6576 42.7479C35.2673 42.7476 37.7217 41.7123 39.5689 39.8326C41.4083 37.9636 42.4208 35.4833 42.4201 32.8489C42.4176 30.2058 41.3989 27.7211 39.5523 25.8523C37.7092 23.9823 35.2608 22.9526 32.6573 22.9526Z" fill="white"/>
<path d="M26.7459 32.8529L25.4959 32.8526C25.4962 30.9251 26.2375 29.1092 27.5828 27.7401C28.9384 26.3608 30.74 25.6011 32.6553 25.6011V26.8511C31.0778 26.8511 29.5931 27.4779 28.4747 28.6164C27.36 29.7504 26.7462 31.2551 26.7459 32.8529Z" fill="white"/>
<path d="M53.6931 58.2736C53.16 58.2736 52.6303 58.1648 52.119 57.9501L52.004 57.902L42.324 48.0914L47.689 42.6558L57.38 52.4758L57.4268 52.5901C57.9584 53.8904 57.82 55.297 57.0462 56.4492C56.2793 57.5914 55.0256 58.2736 53.6931 58.2736ZM52.714 56.8417C53.934 57.2995 55.2825 56.8342 56.0087 55.7526C56.5243 54.9842 56.6328 54.0508 56.3125 53.1739L47.689 44.4354L44.08 48.0914L52.714 56.8417Z" fill="white"/>
<path d="M50.1713 47.0804L49.2812 46.2026L45.8192 49.713L46.7092 50.5908L50.1713 47.0804Z" fill="white"/>
<path d="M45.5654 45.0477L43.1209 42.5698L42.231 43.4477L44.6755 45.9256L45.5654 45.0477Z" fill="white"/>
</g>
<defs>
<clipPath id="clip0_1_228">
<rect width="40" height="40" fill="white" transform="translate(18 18.2729)"/>
</clipPath>
</defs>
</svg>
