<svg width="76" height="77" viewBox="0 0 76 77" fill="none" xmlns="http://www.w3.org/2000/svg">
<circle cx="38" cy="38.2729" r="38" fill="#016099"/>
<g clip-path="url(#clip0_1_250)">
<path d="M38 35.7729C33.1752 35.7729 29.25 31.8472 29.25 27.0229C29.25 22.1987 33.1752 18.2729 38 18.2729C42.8248 18.2729 46.75 22.1987 46.75 27.0229C46.75 31.8472 42.8248 35.7729 38 35.7729ZM38 20.7729C34.554 20.7729 31.75 23.5769 31.75 27.0229C31.75 30.469 34.554 33.2729 38 33.2729C41.446 33.2729 44.25 30.469 44.25 27.0229C44.25 23.5769 41.446 20.7729 38 20.7729Z" fill="white"/>
<path d="M51.75 58.2747C51.0597 58.2747 50.5 57.7156 50.5 57.0247V49.3806C50.5 44.5955 46.6072 40.7026 41.822 40.7026H34.178C29.3928 40.7026 25.5 44.5955 25.5 49.3806V57.0247C25.5 57.7156 24.9403 58.2747 24.25 58.2747C23.5597 58.2747 23 57.7156 23 57.0247V49.3806C23 43.2173 28.0146 38.2026 34.178 38.2026H41.822C47.9854 38.2026 53 43.2173 53 49.3806V57.0247C53 57.7156 52.4403 58.2747 51.75 58.2747Z" fill="white"/>
</g>
<defs>
<clipPath id="clip0_1_250">
<rect width="40" height="40" fill="white" transform="translate(18 18.2729)"/>
</clipPath>
</defs>
</svg>
